<?xml version="1.0" encoding="utf-8"?>
<!-- Generator: Adobe Illustrator 19.0.0, SVG Export Plug-In . SVG Version: 6.00 Build 0)  -->
<svg version="1.1" id="Capa_1" xmlns="http://www.w3.org/2000/svg" xmlns:xlink="http://www.w3.org/1999/xlink" x="0px" y="0px"
	 viewBox="0 0 283.5 283.5" style="enable-background:new 0 0 283.5 283.5;" xml:space="preserve">
<style type="text/css">
	.st0{fill:#FFFFFF;}
</style>
<g id="XMLID_1_">
	<g id="XMLID_49_">
		<path id="XMLID_64_" class="st0" d="M41.9,80.7c5,0,8.8,4.1,11.5,12.2c2.8,4.4,5.8,12.3,9,23.8l4.5,2.1l-3.2,3.2l3.2,19
			c0,1.4-1.3,2.3-3.9,2.6c-2.1-3.1-3.2-6.8-3.2-11.1h-0.7l0.7-0.5l-1.9-9.5c-16.1,2.5-24.9,4-26.3,4.7c-1.1,10.9-2.4,16.4-3.8,16.4
			c-1.2,0-2.5-1.4-3.9-4.2l3.2-16.4l-0.7-1.6c1,0,2.9-7.2,5.8-21.7C36.2,87,39.4,80.7,41.9,80.7z M43.8,86.5
			c-3,3.3-6.4,13.3-10.2,30.2h0.6l-0.6,0.5v3.2c8.1-1.4,15.8-2.3,23-2.6v-1.6c-3.4-13-7-22.4-10.9-28L43.8,86.5z"/>
		<path id="XMLID_62_" class="st0" d="M92.8,86.9c6.9,0,11.5,10.2,13.6,30.7h-0.5l0.5,0.6v2.3c0,5.9,0.9,12,2.7,18.3v0.6l-2.1,2.3
			h-1.6c-1.7,0-3.2-7.1-4.3-21.2l0.5-0.6v-0.6l-0.5-0.6l0.5-0.6c-1.6-16.9-4.7-25.4-9.2-25.4c-3.7,1.1-7.1,5-10.3,11.8
			c-2.4,7.9-4.8,19.1-7,33.6l-3.3,1.8c-1.1-1.2-1.6-2.6-1.6-4.1h-0.5l0.5-0.6l-3.3-37.1l1.6-1.2c2.5,0,3.8,2.4,3.8,7.1l1.1,13.6
			c0.6-0.1,2-5,4.3-14.8c4.6-9.4,9.3-14.7,14.1-15.9H92.8z"/>
		<path id="XMLID_58_" class="st0" d="M135.2,76.8h0.5c2.4,3.6,3.6,6.2,3.6,7.6h-0.5c0.7,1.2,1.5,8.2,2.4,21.1h-0.5l0.5,0.5v9.6
			c0,3.5-0.7,7-2,10.6c2.3,9.8,5.8,14.7,10.3,14.7l9.3-0.5l0.5,2.5v0.5c-3,1.8-6.2,2.8-9.8,3c-5,0-9.3-3.9-12.9-11.6h-0.5
			c-4.5,4.7-7.9,7.1-10.3,7.1h-2.6c-4.8,0-8.4-3.2-10.8-9.6l-1-5.1c0-11.2,5.2-18.8,15.5-22.8l4.1-0.5l-0.4-12l-0.5-2.5
			C130.1,81.1,131.8,76.8,135.2,76.8z M117.1,122.8h0.5l-1,4.6c0.5,6.1,2.7,9.1,6.7,9.1h0.5c3.9,0,7.2-3.4,9.8-10.1v-0.5l-2-16.7
			c-5.1,0-9.5,3.5-13.4,10.6L117.1,122.8z M136.2,101v3.6h0.5V101H136.2z"/>
		<path id="XMLID_56_" class="st0" d="M151.6,95l2,1.2l6.7-1.2c5.6,0,9.8,3.1,12.5,9.2l-4,1.7c-3-3-6.3-4.6-9.9-4.6
			c-2.2,1.8-3.3,4.1-3.3,6.8v0.6c0,5.5,1.5,13.1,4.6,22.9l-3.3,2.3c-3.5,0-5.3-2.7-5.3-8c-2.7-8.7-4-15.8-4-21.2v-2.3
			C147.6,97.5,148.9,95,151.6,95z"/>
		<path id="XMLID_53_" class="st0" d="M191.5,101.2c2.6,0.7,4.9,2.5,6.9,5.3c2.1,4.1,3.4,7.3,3.9,9.6v1.9
			c-4.8,1.6-10.5,2.5-17.2,2.5h-1l-4.9-0.5v1c1.7,13.2,6.6,19.9,14.8,19.9c2.7-1,6.2-3.8,10.3-8.2c2.3,0,3.4,1,3.4,2.9
			c0,3.8-4.1,7.4-12.3,10.7h-1c-8.3,0-14.7-5.6-19.2-16.9c0-1.6-0.4-1-0.4-2.5l0-0.5l-1-6.3c0-5.5,2.5-10.8,7.4-16
			C184.2,102.2,187.6,101.2,191.5,101.2z M180.7,114.2l4.9,1h0.5l0,0l6.4-1l0.5,0.5h0.5c2-0.2,3-0.5,3-0.9c-1.9-4.8-3.5-7.4-4.9-7.8
			h-2.4C183.5,107.4,180.7,110.2,180.7,114.2z"/>
		<path id="XMLID_50_" class="st0" d="M223.9,97.5l1.4,0.6l0.5-0.4l0.5,0.1c4.6,1.9,6.8,3.6,6.7,4.9l1,0.1c0.2-2,1.4-2.9,3.6-2.7
			c2.2,0.2,3.2,2.9,3.1,8l0.4,6.9l-0.5,0.4l0.2,2.2l-0.2,2.2l-0.5,0.3l0.5,0.5l-0.8,3l-0.3,3.4c2.6,7.4,5.7,11.6,9.5,12.7
			c2.3,0.2,5.1-0.6,8.3-2.3c1.5,0.5,2.3,1,2.3,1.5c-0.2,2.1-3.2,3.6-9,4.5c-5.6-0.5-10.4-4.4-14.3-11.6h-0.5
			c-4.3,5.9-9.1,8.7-14.2,8.2l-1.9-0.2c-6.7-0.6-11-6.3-12.8-17l0.5-5.6c0.6-6.7,4.2-12.6,10.7-17.6
			C219.7,98.4,221.7,97.8,223.9,97.5z M211.1,123.1c-0.3,3.5,1.3,7.2,4.8,11.2l3.3,1.1l1,0.1c6.3,0.5,11.1-3.5,14.5-12.1
			c-0.9-3.6-1.5-8.9-2-16.1c-1.3-0.1-1.8-1-1.7-2.7c-1.8-1.9-3.3-2.9-4.5-3l-0.5-0.1c-6.9-0.6-11.8,5.6-14.6,18.5L211.1,123.1z"/>
	</g>
	<g id="XMLID_5_">
		<path id="XMLID_46_" class="st0" d="M35.4,33.1c3,0,5.3,2.4,6.9,7.1c1.7,2.6,3.5,7.2,5.4,13.9l2.7,1.2l-1.9,1.9l1.9,11.1
			c0,0.8-0.8,1.3-2.3,1.5c-1.3-1.8-1.9-4-1.9-6.5h-0.4l0.4-0.3L45,57.5c-9.7,1.4-14.9,2.3-15.7,2.8c-0.7,6.4-1.4,9.5-2.3,9.5
			c-0.7,0-1.5-0.8-2.3-2.4l1.9-9.5l-0.4-1c0.6,0,1.7-4.2,3.5-12.6C32.1,36.8,34,33.1,35.4,33.1z M36.6,36.5
			c-1.8,1.9-3.8,7.8-6.1,17.6h0.4l-0.4,0.3v1.8c4.8-0.8,9.4-1.3,13.8-1.5v-0.9c-2-7.6-4.2-13-6.5-16.3L36.6,36.5z"/>
		<path id="XMLID_44_" class="st0" d="M76,36.7c4.2,0,6.9,5.9,8.1,17.8h-0.3l0.3,0.3v1.4c0,3.4,0.5,7,1.6,10.6v0.3l-1.3,1.4h-1
			c-1,0-1.9-4.1-2.6-12.3l0.3-0.3v-0.3l-0.3-0.3l0.3-0.3c-1-9.8-2.8-14.7-5.5-14.7c-2.2,0.6-4.3,2.9-6.2,6.9
			c-1.4,4.6-2.8,11.1-4.2,19.5l-2,1c-0.6-0.7-1-1.5-1-2.4h-0.3l0.3-0.3l-2-21.6l1-0.7c1.5,0,2.3,1.4,2.3,4.1l0.6,7.9
			c0.3,0,1.2-2.9,2.6-8.6c2.8-5.5,5.6-8.5,8.4-9.2H76z"/>
		<path id="XMLID_41_" class="st0" d="M107.5,44.1c4.5,0.9,6.7,2.6,6.7,5.2l1.4-0.3c1.6,0.4,2.4,1.5,2.4,3.2l-0.3,3.8l1,13.7
			l-0.3,0.3v4.2c0,4.6-2,7.4-6.1,8.4h-0.4c-3.1,0-5.9-2.7-8.4-8h0.3l-0.3-0.3v-1.6l0.7-0.6c1.6,0,2.4,0.4,2.4,1.3c0.3,2,1.6,4,4,6.1
			h0.4c2.9,0,4.4-3,4.4-9l-0.4-0.3l0.4-0.3c-0.2-3.4-0.6-5.2-1-5.2l0.4,0.1l1-3.2h-0.4c-2.4,2.4-4.8,3.8-7.4,4.2
			C101.9,65,99,62.4,99,58L98.7,56v-0.3l0.3-0.3v-0.3h-0.3l0.3-0.3v-0.3l-0.3-0.3c0.6-3.6,2.3-6.5,5.1-8.7L107.5,44.1z M101.7,56.4
			c1,4.1,2.4,6.1,4.4,6.1h1c2.6,0,5-2.1,7.1-6.4l-0.7-6.1l-0.3,0.3h-1c-0.2-1.9-1.2-2.9-3-2.9h-0.7
			C104.9,47.4,102.7,50.4,101.7,56.4z"/>
		<path id="XMLID_38_" class="st0" d="M140.4,45.1c1.5,0.4,2.9,1.5,4.1,3.1c1.3,2.4,2,4.2,2.4,5.6v1.1c-2.9,1-6.3,1.4-10.3,1.4h-0.6
			l-3-0.3v0.6c1,7.7,4,11.5,8.9,11.5c1.6-0.6,3.7-2.2,6.2-4.8c1.4,0,2.1,0.6,2.1,1.7c0,2.2-2.5,4.3-7.4,6.2h-0.6
			c-5,0-8.8-3.3-11.5-9.9c0-1-0.2-1.4-0.6-1.4l0.3-0.3l-0.6-3.7c0-3.2,1.5-6.3,4.4-9.3C135.9,45.6,138,45.1,140.4,45.1z M133.9,52.6
			l3,0.6v-0.3l0.3,0.3l3.8-0.6l0.3,0.3h0.3c1.2-0.1,1.8-0.3,1.8-0.5c-1.1-2.8-2.1-4.3-3-4.5h-1.5C135.5,48.7,133.9,50.3,133.9,52.6z
			"/>
		<path id="XMLID_36_" class="st0" d="M162.1,31.3h0.4l1.7,1.6l-0.4,6.3V40l0.4,0.4l-0.4,0.4c1.6,9.5,2.8,19,3.4,28.5
			c-0.9,1-1.7,1.6-2.4,1.6c-0.9-0.2-1.4-1.1-1.4-2.8h-0.4l0.4-0.4c-0.5-8.4-0.9-12.7-1.4-12.7l0.4-0.4l-2.1-17
			C160.6,33.4,161.2,31.3,162.1,31.3z"/>
		<path id="XMLID_33_" class="st0" d="M180.5,39.2h0.7c1.5,0,2.2,0.5,2.2,1.4l0.4,8.8h0.4l-0.4,0.3l0.7,6l-0.4,0.3l1.1,5.7l-1.1,1.8
			c-2.5,0-3.7-3.7-3.7-11v-0.3l-0.4-0.3l0.4-0.4l-1.1-6.7h0.4l-0.4-0.4V42C179.4,40.3,179.8,39.3,180.5,39.2z M183.9,25.8
			c2,0,3,0.7,3,2.1l0.4,0.4c-0.3,1.6-0.7,2.4-1.1,2.4H185c-1.5-0.7-2.2-1.7-2.2-2.8v-1.1L183.9,25.8z"/>
		<path id="XMLID_31_" class="st0" d="M208.4,41.1h0.9c2.5,0,4.2,2,5,6c0,1-0.5,1.6-1.5,1.8c-1.1,0-1.8-1.4-2.1-4.1l-1.2-1.1h-0.3
			c-3,0-5.5,3.7-7.7,11.2l-0.3,2.3c0,4.9,1.8,7.7,5.3,8.4l3.2,0.2c2.4-0.8,4.4-1.8,5.9-3.1l1.2-0.2c0.8,0.2,1.2,0.7,1.2,1.6v1
			c-1.9,1.8-4.5,3-7.7,3.6h-1.8c-4.1,0-7.2-1.8-9.1-5.4c-0.8-1.6-1.2-2.8-1.2-3.7v-1c0-7.7,2.8-13.4,8.5-17.2L208.4,41.1z"/>
		<path id="XMLID_6_" class="st0" d="M238.2,42.9l0.8,0.3l0.3-0.2l0.3,0c2.7,1.1,4.1,2.1,4,2.8l0.6,0c0.1-1.2,0.8-1.7,2.2-1.6
			c1.3,0.1,1.9,1.7,1.9,4.7l0.2,4l-0.3,0.2l0.1,1.3l-0.1,1.3l-0.3,0.2l0.3,0.3l-0.5,1.7l-0.2,2c1.5,4.3,3.4,6.8,5.7,7.4
			c1.4,0.1,3-0.3,5-1.3c0.9,0.3,1.4,0.6,1.4,0.8c-0.1,1.2-1.9,2.1-5.4,2.6c-3.4-0.3-6.2-2.5-8.5-6.7h-0.3c-2.6,3.4-5.4,5-8.5,4.8
			l-1.1-0.1c-4-0.3-6.6-3.6-7.7-9.9l0.3-3.2c0.4-3.9,2.5-7.3,6.4-10.2C235.7,43.5,236.9,43.1,238.2,42.9z M230.5,57.8
			c-0.2,2,0.8,4.2,2.8,6.5l2,0.6l0.6,0.1c3.7,0.3,6.6-2,8.7-7c-0.5-2.1-0.9-5.2-1.2-9.3c-0.8,0-1.1-0.6-1-1.6
			c-1.1-1.1-2-1.7-2.7-1.7l-0.3,0c-4.1-0.3-7,3.2-8.8,10.8L230.5,57.8z"/>
	</g>
	<g id="XMLID_2_">
		<g id="XMLID_48_">
			<g id="XMLID_55_">
				<path id="XMLID_57_" class="st0" d="M141.2,40.2C141.2,40.1,141.1,40.1,141.2,40.2c0-0.2,0.1-0.1,0.2-0.2l0-0.1
					c0.1,0,0.2-0.1,0.3-0.1c0.1-0.1,0.2-0.2,0.3-0.4c0,0,0,0,0,0c0-0.1,0.1-0.1,0.2-0.2l0,0c0,0,0,0,0,0c0,0,0.1-0.1,0.1-0.1
					c0.2-0.4,0.5-0.9,0.8-1.3c0-0.1,0.1-0.2,0.1-0.3c0.1-0.1,0.3-0.2,0.4-0.3c-0.2-0.2,0-0.5-0.2-0.6c0.1-0.1,0.2-0.2,0.2-0.2
					c-0.1-0.2-0.2-0.4-0.1-0.7c0.1-0.1,0.2-0.1,0.2-0.2c0-0.1-0.2,0-0.2-0.1c-0.6,0.5-1.1,1.1-1.7,1.7c-0.1,0.3-1.4,1.6-1.8,1.9l0,0
					c-0.2,0.2-0.4,0.4-0.5,0.6c0,0.1-0.1,0.2-0.1,0.3c0.1,0,0.1,0,0.2,0c-0.1,0.1-0.2,0.1-0.2,0.2c-0.1,0.2,0.1,0.2,0.3,0.3
					c0.1,0,0.1,0.1,0.2,0.1c-0.1,0-0.1,0.1-0.1,0.1c0,0.1,0.1-0.2,0.2-0.1c-0.1,0-0.1,0.1-0.1,0.2c0.1,0,0.2-0.1,0.2-0.1
					c0,0-0.2,0-0.2,0.1c0,0,0.1,0,0.1-0.1c-0.1,0.2-0.1,0.3,0.1,0.3c-0.1,0-0.2,0.1-0.2,0.1l0,0c0,0,0.1,0,0.1-0.1l-0.1,0.1l0,0
					c0,0,0.1,0,0.1,0l-0.1,0.1c0,0,0.1,0,0.1,0c0.1,0,0.3,0,0.3,0C140.6,40.7,140.9,40.4,141.2,40.2z"/>
			</g>
		</g>
	</g>
</g>
</svg>
